# xmcd
#
# Track frame offsets: 
#        150
#        13635
#        31283
#        48148
#        90975
#        114885
#        130290
#        148957
#        165272
#        182937
#        206940
#        259400
#        280800
#        308696
#
# Disc length: 4374 seconds
#
# Revision: 1
# Processed by: cddbd v1.5.2PL0 Copyright (c) Steve Scherf et al.
# Submitted via: ExactAudioCopy v1.3
#
DISCID=bf11140e
DTITLE=Seth Yacovone Blue's Band - Bobfred's Bathtub Minstrel
DYEAR=1997
DGENRE=Blues
TTITLE0=Flander's Theme
TTITLE1=Bobfred
TTITLE2=Yes
TTITLE3=Blues Is My Only Friend
TTITLE4=Deta Pit Snoc Blues
TTITLE5=Bob Barker
TTITLE6=Just A Mess
TTITLE7=BatchAlism
TTITLE8=OK
TTITLE9=Out Of My Way
TTITLE10=All The Pain Through The Years
TTITLE11=Fix It Man
TTITLE12=Blossom Will My Tree
TTITLE13=I Need A Change
EXTD=
EXTT0=
EXTT1=
EXTT2=
EXTT3=
EXTT4=
EXTT5=
EXTT6=
EXTT7=
EXTT8=
EXTT9=
EXTT10=
EXTT11=
EXTT12=
EXTT13=
PLAYORDER=
